<?xml version="1.0" encoding="UTF-8"?>
<svg xmlns="http://www.w3.org/2000/svg" width="32" height="32" viewBox="0 0 32 32" shape-rendering="crispEdges">
<title>stone bookshelf</title>
<rect x="0" y="0" width="32" height="32" fill="#a1a497"/>
<rect x="3" y="2" width="26" height="27" fill="#393e36"/>
<rect x="4" y="4" width="3" height="9" fill="#a86049"/>
<rect x="4" y="5" width="1" height="7" fill="#c5c5b2"/>
<rect x="4" y="11" width="3" height="1" fill="#d0b08b"/>
<rect x="8" y="3" width="2" height="10" fill="#728b88"/>
<rect x="8" y="4" width="1" height="8" fill="#c5c5b2"/>
<rect x="8" y="11" width="2" height="1" fill="#d0b08b"/>
<rect x="11" y="5" width="4" height="8" fill="#9b925b"/>
<rect x="11" y="6" width="1" height="6" fill="#c5c5b2"/>
<rect x="11" y="11" width="4" height="1" fill="#d0b08b"/>
<rect x="16" y="3" width="3" height="10" fill="#797b62"/>
<rect x="16" y="4" width="1" height="8" fill="#c5c5b2"/>
<rect x="16" y="11" width="3" height="1" fill="#d0b08b"/>
<rect x="20" y="4" width="3" height="9" fill="#8e6a6b"/>
<rect x="20" y="5" width="1" height="7" fill="#c5c5b2"/>
<rect x="20" y="11" width="3" height="1" fill="#d0b08b"/>
<rect x="24" y="6" width="3" height="7" fill="#b5a88a"/>
<rect x="24" y="7" width="1" height="5" fill="#c5c5b2"/>
<rect x="24" y="11" width="3" height="1" fill="#d0b08b"/>
<rect x="4" y="18" width="3" height="9" fill="#a86049"/>
<rect x="4" y="19" width="1" height="7" fill="#c5c5b2"/>
<rect x="4" y="25" width="3" height="1" fill="#d0b08b"/>
<rect x="8" y="17" width="2" height="10" fill="#728b88"/>
<rect x="8" y="18" width="1" height="8" fill="#c5c5b2"/>
<rect x="8" y="25" width="2" height="1" fill="#d0b08b"/>
<rect x="11" y="19" width="4" height="8" fill="#9b925b"/>
<rect x="11" y="20" width="1" height="6" fill="#c5c5b2"/>
<rect x="11" y="25" width="4" height="1" fill="#d0b08b"/>
<rect x="16" y="18" width="3" height="9" fill="#797b62"/>
<rect x="16" y="19" width="1" height="7" fill="#c5c5b2"/>
<rect x="16" y="25" width="3" height="1" fill="#d0b08b"/>
<rect x="20" y="18" width="3" height="9" fill="#8e6a6b"/>
<rect x="20" y="19" width="1" height="7" fill="#c5c5b2"/>
<rect x="20" y="25" width="3" height="1" fill="#d0b08b"/>
<rect x="24" y="20" width="3" height="7" fill="#b5a88a"/>
<rect x="24" y="21" width="1" height="5" fill="#c5c5b2"/>
<rect x="24" y="25" width="3" height="1" fill="#d0b08b"/>
<rect x="0" y="0" width="32" height="1" fill="#c5c5b2"/>
<rect x="0" y="1" width="32" height="2" fill="#a1a497"/>
<rect x="0" y="3" width="32" height="1" fill="#626d67"/>
<rect x="0" y="14" width="32" height="1" fill="#c5c5b2"/>
<rect x="0" y="15" width="32" height="2" fill="#a1a497"/>
<rect x="0" y="17" width="32" height="1" fill="#626d67"/>
<rect x="0" y="28" width="32" height="1" fill="#c5c5b2"/>
<rect x="0" y="29" width="32" height="2" fill="#a1a497"/>
<rect x="0" y="31" width="32" height="1" fill="#626d67"/>
<rect x="0" y="0" width="2" height="32" fill="#c5c5b2"/>
<rect x="30" y="0" width="2" height="32" fill="#626d67"/>
</svg>
