<?xml version="1.0" encoding="UTF-8"?>
<svg xmlns="http://www.w3.org/2000/svg" width="32" height="32" viewBox="0 0 32 32" shape-rendering="crispEdges">
<title>thatch</title>
<rect x="0" y="0" width="32" height="32" fill="#b49559"/>
<rect x="0" y="7" width="32" height="1" fill="#795f3d"/>
<path d="M0 0L-2 6" fill="none" stroke="#d0b274" stroke-width="1"/>
<path d="M4 0L2 6" fill="none" stroke="#d0b274" stroke-width="1"/>
<path d="M8 0L6 6" fill="none" stroke="#d0b274" stroke-width="1"/>
<path d="M12 0L10 6" fill="none" stroke="#d0b274" stroke-width="1"/>
<path d="M16 0L14 6" fill="none" stroke="#d0b274" stroke-width="1"/>
<path d="M20 0L18 6" fill="none" stroke="#d0b274" stroke-width="1"/>
<path d="M24 0L22 6" fill="none" stroke="#d0b274" stroke-width="1"/>
<path d="M28 0L26 6" fill="none" stroke="#d0b274" stroke-width="1"/>
<rect x="0" y="15" width="32" height="1" fill="#795f3d"/>
<path d="M0 8L-2 14" fill="none" stroke="#d0b274" stroke-width="1"/>
<path d="M4 8L2 14" fill="none" stroke="#d0b274" stroke-width="1"/>
<path d="M8 8L6 14" fill="none" stroke="#d0b274" stroke-width="1"/>
<path d="M12 8L10 14" fill="none" stroke="#d0b274" stroke-width="1"/>
<path d="M16 8L14 14" fill="none" stroke="#d0b274" stroke-width="1"/>
<path d="M20 8L18 14" fill="none" stroke="#d0b274" stroke-width="1"/>
<path d="M24 8L22 14" fill="none" stroke="#d0b274" stroke-width="1"/>
<path d="M28 8L26 14" fill="none" stroke="#d0b274" stroke-width="1"/>
<rect x="0" y="23" width="32" height="1" fill="#795f3d"/>
<path d="M0 16L-2 22" fill="none" stroke="#d0b274" stroke-width="1"/>
<path d="M4 16L2 22" fill="none" stroke="#d0b274" stroke-width="1"/>
<path d="M8 16L6 22" fill="none" stroke="#d0b274" stroke-width="1"/>
<path d="M12 16L10 22" fill="none" stroke="#d0b274" stroke-width="1"/>
<path d="M16 16L14 22" fill="none" stroke="#d0b274" stroke-width="1"/>
<path d="M20 16L18 22" fill="none" stroke="#d0b274" stroke-width="1"/>
<path d="M24 16L22 22" fill="none" stroke="#d0b274" stroke-width="1"/>
<path d="M28 16L26 22" fill="none" stroke="#d0b274" stroke-width="1"/>
<rect x="0" y="31" width="32" height="1" fill="#795f3d"/>
<path d="M0 24L-2 30" fill="none" stroke="#d0b274" stroke-width="1"/>
<path d="M4 24L2 30" fill="none" stroke="#d0b274" stroke-width="1"/>
<path d="M8 24L6 30" fill="none" stroke="#d0b274" stroke-width="1"/>
<path d="M12 24L10 30" fill="none" stroke="#d0b274" stroke-width="1"/>
<path d="M16 24L14 30" fill="none" stroke="#d0b274" stroke-width="1"/>
<path d="M20 24L18 30" fill="none" stroke="#d0b274" stroke-width="1"/>
<path d="M24 24L22 30" fill="none" stroke="#d0b274" stroke-width="1"/>
<path d="M28 24L26 30" fill="none" stroke="#d0b274" stroke-width="1"/>

</svg>
