<?xml version="1.0" encoding="UTF-8" standalone="no"?>
<svg
   width="32"
   height="32"
   viewBox="0 0 32 32"
   shape-rendering="crispEdges"
   version="1.1"
   id="svg16"
   sodipodi:docname="wolf.svg"
   inkscape:version="1.4.3 (1:1.4.3+202512261035+0d15f75042)"
   xmlns:inkscape="http://www.inkscape.org/namespaces/inkscape"
   xmlns:sodipodi="http://sodipodi.sourceforge.net/DTD/sodipodi-0.dtd"
   xmlns="http://www.w3.org/2000/svg"
   xmlns:svg="http://www.w3.org/2000/svg">
  <defs
     id="defs16" />
  <sodipodi:namedview
     id="namedview16"
     pagecolor="#ffffff"
     bordercolor="#000000"
     borderopacity="0.25"
     inkscape:showpageshadow="2"
     inkscape:pageopacity="0.0"
     inkscape:pagecheckerboard="0"
     inkscape:deskcolor="#d1d1d1"
     inkscape:zoom="27.5"
     inkscape:cx="18.490909"
     inkscape:cy="16.090909"
     inkscape:window-width="1247"
     inkscape:window-height="1371"
     inkscape:window-x="66"
     inkscape:window-y="32"
     inkscape:window-maximized="0"
     inkscape:current-layer="svg16" />
  <title
     id="title1">wolf</title>
  <polygon
     points="7,17 3,15 1,11 3,9 6,13 10,14"
     fill="#626d67"
     id="polygon1" />
  <polygon
     points="7,28 8,18 11,19 10,28 "
     fill="#626d67"
     id="polygon2"
     transform="matrix(-1,0,0,1,20.654545,0.50909091)" />
  <polygon
     points="19,20 22,20 23,27 20,28 "
     fill="#626d67"
     id="polygon3"
     transform="rotate(180,20.8,25.072727)" />
  <polygon
     points="6,13 11,9 20,13 24,19 19,25 10,21 6,18"
     fill="#848c85"
     id="polygon4" />
  <polygon
     points="6,13 11,9 20,13 18,17 11,17"
     fill="#b8b8a7"
     id="polygon5" />
  <polygon
     points="17,17 20,17 21,22 18,21"
     fill="#c9c8b5"
     id="polygon15" />
  <polygon
     points="14,21 13,30 10,30 11,20 "
     fill="#848c85"
     id="polygon6"
     transform="translate(-3.9636364,-1.2363636)" />
  <polygon
     points="20,23 23,22 24,30 21,31 "
     fill="#848c85"
     id="polygon7"
     transform="matrix(-1,0,0,1,39.018182,-0.25454546)" />
  <rect
     x="6.0363636"
     y="27.763636"
     width="3"
     height="1"
     fill="#c9c8b5"
     id="rect7" />
  <rect
     x="-18.018181"
     y="29.745455"
     width="3"
     height="1"
     fill="#c9c8b5"
     id="rect8"
     transform="scale(-1,1)" />
  <polygon
     points="19,14 22,11 27,14 27,18 31,20 30,23 25,25 21,22 19,18"
     fill="#848c85"
     id="polygon8" />
  <polygon
     points="20,14 22,11 27,14 25,17 22,18"
     fill="#b8b8a7"
     id="polygon9" />
  <polygon
     points="25,19 28,18 31,20 28,22 25,22"
     fill="#c9c8b5"
     id="polygon10" />
  <polygon
     points="25,22 28,22 30,21 30,23 25,25 23,23"
     fill="#626d67"
     id="polygon11" />
  <polygon
     points="20,8 24,12 20,14 "
     fill="#626d67"
     id="polygon12"
     transform="translate(-0.36363636,0.14545455)" />
  <polygon
     points="27,9 28,16 25,14 "
     fill="#626d67"
     id="polygon13"
     transform="translate(-0.98181818,-1.2)" />
  <polygon
     points="21,10 23,12 21,12 "
     fill="#c9c8b5"
     id="polygon14"
     transform="translate(-0.54545455,0.43636364)" />
  <rect
     x="25"
     y="17"
     width="1"
     height="2"
     fill="#282b29"
     id="rect15" />
  <rect
     x="29"
     y="20"
     width="2"
     height="2"
     fill="#344247"
     id="rect16" />
  <rect
     x="22.6"
     y="17.363636"
     width="1"
     height="2"
     fill="#282b29"
     id="rect17" />
</svg>
