<?xml version="1.0" encoding="UTF-8" standalone="no"?>
<svg
   width="32"
   height="32"
   viewBox="0 0 32 32"
   shape-rendering="crispEdges"
   version="1.1"
   id="svg20"
   sodipodi:docname="wood-window-glassless-unlit.svg"
   inkscape:version="1.4.3 (1:1.4.3+202512261035+0d15f75042)"
   xmlns:inkscape="http://www.inkscape.org/namespaces/inkscape"
   xmlns:sodipodi="http://sodipodi.sourceforge.net/DTD/sodipodi-0.dtd"
   xmlns="http://www.w3.org/2000/svg"
   xmlns:svg="http://www.w3.org/2000/svg">
  <defs
     id="defs20" />
  <sodipodi:namedview
     id="namedview20"
     pagecolor="#ffffff"
     bordercolor="#000000"
     borderopacity="0.25"
     inkscape:showpageshadow="2"
     inkscape:pageopacity="0.0"
     inkscape:pagecheckerboard="0"
     inkscape:deskcolor="#d1d1d1"
     inkscape:zoom="28.1875"
     inkscape:cx="15.982262"
     inkscape:cy="15.982262"
     inkscape:window-width="2494"
     inkscape:window-height="1371"
     inkscape:window-x="66"
     inkscape:window-y="32"
     inkscape:window-maximized="1"
     inkscape:current-layer="svg20" />
  <title
     id="title1">wood-window-glassless-unlit</title>
  <rect
     x="0"
     y="0"
     width="32"
     height="32"
     fill="#ab8153"
     id="rect1" />
  <rect
     x="0"
     y="0"
     width="1"
     height="32"
     fill="#795a3b"
     id="rect2" />
  <rect
     x="1"
     y="0"
     width="1"
     height="32"
     fill="#d2a974"
     id="rect3" />
  <rect
     x="8"
     y="0"
     width="1"
     height="32"
     fill="#795a3b"
     id="rect4" />
  <rect
     x="9"
     y="0"
     width="1"
     height="32"
     fill="#d2a974"
     id="rect5" />
  <rect
     x="16"
     y="0"
     width="1"
     height="32"
     fill="#795a3b"
     id="rect6" />
  <rect
     x="17"
     y="0"
     width="1"
     height="32"
     fill="#d2a974"
     id="rect7" />
  <rect
     x="24"
     y="0"
     width="1"
     height="32"
     fill="#795a3b"
     id="rect8" />
  <rect
     x="25"
     y="0"
     width="1"
     height="32"
     fill="#d2a974"
     id="rect9" />
  <rect
     x="5"
     y="6"
     width="1"
     height="5"
     fill="#8d673e"
     id="rect10" />
  <rect
     x="13"
     y="19"
     width="1"
     height="5"
     fill="#8d673e"
     id="rect11" />
  <rect
     x="20"
     y="4"
     width="1"
     height="5"
     fill="#8d673e"
     id="rect12" />
  <rect
     x="27"
     y="24"
     width="1"
     height="5"
     fill="#8d673e"
     id="rect13" />
  <rect
     x="4"
     y="5"
     width="24"
     height="23"
     fill="#574332"
     id="rect14" />
  <rect
     x="6"
     y="7"
     width="20"
     height="19"
     fill="#080b09"
     id="rect15"
     style="fill:#282b29" />
  <rect
     x="3"
     y="4"
     width="26"
     height="2"
     fill="#d2a974"
     id="rect16" />
  <rect
     x="4"
     y="6"
     width="1"
     height="22"
     fill="#d2a974"
     id="rect17" />
  <rect
     x="27"
     y="6"
     width="1"
     height="22"
     fill="#795a3b"
     id="rect18" />
  <rect
     x="3"
     y="27"
     width="26"
     height="2"
     fill="#d2a974"
     id="rect19" />
  <rect
     x="3"
     y="29"
     width="26"
     height="1"
     fill="#795a3b"
     id="rect20" />
</svg>
