<?xml version="1.0" encoding="UTF-8"?>
<svg xmlns="http://www.w3.org/2000/svg" width="32" height="48" viewBox="0 0 32 48" shape-rendering="crispEdges">
  <rect x="20" y="2" width="4" height="1" fill="#648f46"/>
  <rect x="14" y="3" width="3" height="11" fill="#604732"/>
  <rect x="18" y="3" width="8" height="1" fill="#648f46"/>
  <rect x="17" y="4" width="10" height="4" fill="#648f46"/>
  <rect x="18" y="8" width="8" height="1" fill="#648f46"/>
  <rect x="20" y="9" width="4" height="1" fill="#648f46"/>
  <rect x="13" y="10" width="1" height="1" fill="#d96b4e"/>
  <rect x="17" y="10" width="1" height="1" fill="#d96b4e"/>
  <rect x="18" y="10" width="1" height="1" fill="#9b3f37"/>
  <rect x="11" y="11" width="3" height="1" fill="#d96b4e"/>
  <rect x="17" y="11" width="3" height="1" fill="#d96b4e"/>
  <rect x="20" y="11" width="1" height="1" fill="#9b3f37"/>
  <rect x="9" y="12" width="1" height="1" fill="#9b3f37"/>
  <rect x="10" y="12" width="4" height="1" fill="#d96b4e"/>
  <rect x="17" y="12" width="4" height="1" fill="#d96b4e"/>
  <rect x="21" y="12" width="2" height="1" fill="#9b3f37"/>
  <rect x="8" y="13" width="1" height="1" fill="#9b3f37"/>
  <rect x="9" y="13" width="5" height="1" fill="#d96b4e"/>
  <rect x="17" y="13" width="5" height="1" fill="#d96b4e"/>
  <rect x="22" y="13" width="2" height="1" fill="#9b3f37"/>
  <rect x="7" y="14" width="1" height="1" fill="#9b3f37"/>
  <rect x="8" y="14" width="15" height="1" fill="#d96b4e"/>
  <rect x="23" y="14" width="2" height="1" fill="#9b3f37"/>
  <rect x="6" y="15" width="1" height="1" fill="#9b3f37"/>
  <rect x="7" y="15" width="3" height="1" fill="#d96b4e"/>
  <rect x="10" y="15" width="1" height="1" fill="#edaa70"/>
  <rect x="11" y="15" width="13" height="1" fill="#d96b4e"/>
  <rect x="24" y="15" width="2" height="1" fill="#9b3f37"/>
  <rect x="6" y="16" width="3" height="1" fill="#d96b4e"/>
  <rect x="9" y="16" width="3" height="1" fill="#edaa70"/>
  <rect x="12" y="16" width="13" height="1" fill="#d96b4e"/>
  <rect x="25" y="16" width="1" height="1" fill="#9b3f37"/>
  <rect x="5" y="17" width="1" height="1" fill="#9b3f37"/>
  <rect x="6" y="17" width="2" height="1" fill="#d96b4e"/>
  <rect x="8" y="17" width="5" height="3" fill="#edaa70"/>
  <rect x="13" y="17" width="12" height="1" fill="#d96b4e"/>
  <rect x="25" y="17" width="2" height="1" fill="#9b3f37"/>
  <rect x="4" y="18" width="1" height="3" fill="#9b3f37"/>
  <rect x="5" y="18" width="3" height="2" fill="#d96b4e"/>
  <rect x="13" y="18" width="13" height="2" fill="#d96b4e"/>
  <rect x="26" y="18" width="2" height="3" fill="#9b3f37"/>
  <rect x="5" y="20" width="4" height="1" fill="#d96b4e"/>
  <rect x="9" y="20" width="3" height="1" fill="#edaa70"/>
  <rect x="12" y="20" width="14" height="1" fill="#d96b4e"/>
  <rect x="3" y="21" width="2" height="1" fill="#9b3f37"/>
  <rect x="5" y="21" width="5" height="1" fill="#d96b4e"/>
  <rect x="10" y="21" width="1" height="1" fill="#edaa70"/>
  <rect x="11" y="21" width="15" height="1" fill="#d96b4e"/>
  <rect x="26" y="21" width="3" height="1" fill="#9b3f37"/>
  <rect x="3" y="22" width="1" height="2" fill="#9b3f37"/>
  <rect x="4" y="22" width="23" height="9" fill="#d96b4e"/>
  <rect x="27" y="22" width="2" height="2" fill="#9b3f37"/>
  <rect x="2" y="24" width="2" height="7" fill="#9b3f37"/>
  <rect x="27" y="24" width="3" height="7" fill="#9b3f37"/>
  <rect x="2" y="31" width="3" height="3" fill="#9b3f37"/>
  <rect x="5" y="31" width="21" height="4" fill="#d96b4e"/>
  <rect x="26" y="31" width="4" height="3" fill="#9b3f37"/>
  <rect x="3" y="34" width="2" height="1" fill="#9b3f37"/>
  <rect x="26" y="34" width="3" height="1" fill="#9b3f37"/>
  <rect x="3" y="35" width="3" height="2" fill="#9b3f37"/>
  <rect x="6" y="35" width="19" height="2" fill="#d96b4e"/>
  <rect x="25" y="35" width="4" height="2" fill="#9b3f37"/>
  <rect x="4" y="37" width="3" height="1" fill="#9b3f37"/>
  <rect x="7" y="37" width="17" height="1" fill="#d96b4e"/>
  <rect x="24" y="37" width="4" height="1" fill="#9b3f37"/>
  <rect x="4" y="38" width="4" height="1" fill="#9b3f37"/>
  <rect x="8" y="38" width="15" height="1" fill="#d96b4e"/>
  <rect x="23" y="38" width="5" height="1" fill="#9b3f37"/>
  <rect x="4" y="39" width="5" height="1" fill="#9b3f37"/>
  <rect x="9" y="39" width="13" height="1" fill="#d96b4e"/>
  <rect x="22" y="39" width="6" height="1" fill="#9b3f37"/>
  <rect x="5" y="40" width="5" height="1" fill="#9b3f37"/>
  <rect x="10" y="40" width="11" height="1" fill="#d96b4e"/>
  <rect x="21" y="40" width="6" height="1" fill="#9b3f37"/>
  <rect x="6" y="41" width="5" height="1" fill="#9b3f37"/>
  <rect x="11" y="41" width="9" height="1" fill="#d96b4e"/>
  <rect x="20" y="41" width="6" height="1" fill="#9b3f37"/>
  <rect x="6" y="42" width="7" height="1" fill="#9b3f37"/>
  <rect x="13" y="42" width="5" height="1" fill="#d96b4e"/>
  <rect x="18" y="42" width="8" height="1" fill="#9b3f37"/>
  <rect x="7" y="43" width="18" height="1" fill="#9b3f37"/>
  <rect x="8" y="44" width="16" height="1" fill="#9b3f37"/>
  <rect x="9" y="45" width="14" height="1" fill="#9b3f37"/>
  <rect x="11" y="46" width="10" height="1" fill="#9b3f37"/>
  <rect x="13" y="47" width="6" height="1" fill="#9b3f37"/>
</svg>
